<?xml version="1.0" encoding="UTF-8"?>
<svg xmlns="http://www.w3.org/2000/svg" xmlns:xlink="http://www.w3.org/1999/xlink" width="300px" height="198px" viewBox="0 0 299 198" version="1.1">
  <defs>
    <linearGradient id="linear0" gradientUnits="userSpaceOnUse" x1="0" y1="0" x2="1" y2="0" gradientTransform="matrix(9.753906,0,0,31.847656,193.554688,50.515625)">
      <stop offset="0" style="stop-color:rgb(17.647059%,21.960784%,54.117647%);stop-opacity:1;"></stop>
      <stop offset="1" style="stop-color:rgb(0%,68.235294%,93.72549%);stop-opacity:1;"></stop>
    </linearGradient>
    <linearGradient id="linear1" gradientUnits="userSpaceOnUse" x1="0" y1="0" x2="1" y2="0" gradientTransform="matrix(37.699219,0,0,105.789062,95.371094,13.894531)">
      <stop offset="0" style="stop-color:rgb(17.647059%,21.960784%,54.117647%);stop-opacity:1;"></stop>
      <stop offset="1" style="stop-color:rgb(0%,68.235294%,93.72549%);stop-opacity:1;"></stop>
    </linearGradient>
    <linearGradient id="linear2" gradientUnits="userSpaceOnUse" x1="0" y1="0" x2="1" y2="0" gradientTransform="matrix(59.628906,0,0,117.855469,129.234375,8.09375)">
      <stop offset="0" style="stop-color:rgb(17.647059%,21.960784%,54.117647%);stop-opacity:1;"></stop>
      <stop offset="1" style="stop-color:rgb(0%,68.235294%,93.72549%);stop-opacity:1;"></stop>
    </linearGradient>
  </defs>
  <g id="surface1">
    <path style=" stroke:none;fill-rule:evenodd;fill:url(#linear0);" d="M 193.554688 66.441406 C 193.558594 75.238281 195.738281 82.363281 198.429688 82.363281 C 201.121094 82.363281 203.304688 75.230469 203.308594 66.445312 C 203.304688 57.644531 201.125 50.515625 198.433594 50.515625 C 195.738281 50.519531 193.546875 57.648438 193.554688 66.441406 Z M 193.554688 66.441406 "></path>
    <path style=" stroke:none;fill-rule:evenodd;fill:url(#linear1);" d="M 133.0625 13.894531 C 110.804688 23.148438 95.371094 43.359375 95.371094 66.792969 C 95.363281 90.226562 110.804688 110.433594 133.070312 119.683594 C 120.3125 108.628906 111.839844 89.066406 111.839844 66.792969 C 111.839844 44.519531 120.320312 24.957031 133.0625 13.894531 Z M 133.0625 13.894531 "></path>
    <path style=" stroke:none;fill-rule:evenodd;fill:url(#linear2);" d="M 148.136719 8.09375 C 137.703125 8.09375 129.234375 34.488281 129.234375 67.019531 C 129.234375 99.566406 137.703125 125.949219 148.144531 125.949219 C 153.296875 125.949219 157.976562 119.496094 161.386719 109.039062 C 164.269531 116.070312 167.902344 120.273438 171.84375 120.273438 C 181.246094 120.277344 188.871094 96.519531 188.863281 67.222656 C 188.871094 37.925781 181.25 14.167969 171.855469 14.179688 C 167.941406 14.179688 164.335938 18.3125 161.457031 25.242188 C 158.039062 14.65625 153.335938 8.097656 148.136719 8.09375 Z M 186.339844 67.226562 C 186.347656 83.667969 182.261719 97.007812 177.226562 97.007812 C 172.1875 97.007812 168.105469 83.667969 168.105469 67.230469 C 168.105469 50.78125 172.1875 37.449219 177.226562 37.441406 C 182.265625 37.445312 186.347656 50.777344 186.339844 67.226562 Z M 160.601562 27.441406 C 157.066406 37.164062 154.832031 51.378906 154.832031 67.222656 C 154.832031 82.929688 157.023438 97.039062 160.503906 106.753906 C 158.808594 109.058594 156.933594 110.335938 154.972656 110.335938 C 147.289062 110.328125 141.070312 90.941406 141.070312 67.019531 C 141.070312 43.105469 147.289062 23.710938 154.960938 23.710938 C 156.972656 23.714844 158.878906 25.050781 160.601562 27.441406 Z M 160.601562 27.441406 "></path>
    <path style=" stroke:none;fill-rule:nonzero;fill:rgb(7.45098%,49.019608%,77.254902%);fill-opacity:1;" d="M 26.359375 168.40625 L 8.082031 168.40625 L 8.082031 143.722656 L 13.445312 143.722656 L 13.445312 163.78125 L 26.359375 163.78125 Z M 34.046875 147.082031 C 33.507812 147.613281 32.855469 147.875 32.089844 147.875 C 31.304688 147.875 30.636719 147.613281 30.085938 147.082031 C 29.535156 146.554688 29.257812 145.90625 29.257812 145.140625 C 29.257812 144.398438 29.535156 143.761719 30.085938 143.234375 C 30.636719 142.703125 31.304688 142.441406 32.089844 142.441406 C 32.855469 142.441406 33.507812 142.703125 34.046875 143.234375 C 34.585938 143.761719 34.855469 144.398438 34.855469 145.140625 C 34.855469 145.90625 34.585938 146.554688 34.046875 147.082031 Z M 29.5625 149.867188 L 34.621094 149.867188 L 34.621094 168.40625 L 29.5625 168.40625 Z M 56.183594 173.082031 C 54.53125 174.625 52.234375 175.394531 49.289062 175.394531 C 45.757812 175.394531 42.800781 174.460938 40.417969 172.59375 L 42.882812 169.015625 C 43.644531 169.621094 44.550781 170.117188 45.59375 170.5 C 46.640625 170.882812 47.746094 171.074219 48.917969 171.074219 C 52.085938 171.074219 53.671875 169.632812 53.671875 166.75 L 53.671875 166.449219 C 52.324219 167.550781 50.589844 168.101562 48.480469 168.101562 C 46.523438 168.101562 44.804688 167.691406 43.320312 166.871094 C 41.835938 166.046875 40.699219 164.929688 39.914062 163.511719 C 39.125 162.09375 38.734375 160.527344 38.734375 158.816406 C 38.734375 157.082031 39.125 155.511719 39.914062 154.105469 C 40.699219 152.699219 41.832031 151.578125 43.300781 150.746094 C 44.773438 149.914062 46.5 149.496094 48.480469 149.496094 C 50.589844 149.496094 52.324219 150.046875 53.671875 151.152344 L 53.671875 149.835938 L 58.660156 149.835938 L 58.660156 166.75 C 58.660156 169.429688 57.835938 171.539062 56.183594 173.082031 Z M 51.363281 163.1875 C 52.136719 162.75 52.75 162.144531 53.199219 161.367188 C 53.648438 160.589844 53.875 159.738281 53.875 158.816406 C 53.875 157.871094 53.648438 157.015625 53.199219 156.25 C 52.75 155.484375 52.136719 154.882812 51.363281 154.445312 C 50.585938 154.003906 49.726562 153.785156 48.78125 153.785156 C 47.253906 153.785156 46.023438 154.265625 45.089844 155.21875 C 44.15625 156.175781 43.691406 157.375 43.691406 158.816406 C 43.691406 160.300781 44.144531 161.511719 45.054688 162.445312 C 45.964844 163.378906 47.207031 163.847656 48.78125 163.847656 C 49.726562 163.847656 50.585938 163.628906 51.363281 163.1875 Z M 79.246094 151.558594 C 80.40625 152.929688 80.984375 154.886719 80.984375 157.433594 L 80.984375 168.40625 L 75.859375 168.40625 L 75.859375 157.433594 C 75.859375 156.105469 75.527344 155.148438 74.863281 154.5625 C 74.203125 153.976562 73.332031 153.683594 72.25 153.683594 C 71.328125 153.683594 70.496094 154.050781 69.753906 154.78125 C 69.015625 155.511719 68.664062 156.78125 68.710938 158.582031 L 68.710938 168.40625 L 63.6875 168.40625 L 63.6875 142.84375 L 68.710938 142.84375 L 68.710938 151.488281 C 69.316406 150.882812 70.082031 150.398438 71.003906 150.039062 C 71.925781 149.675781 72.8125 149.496094 73.667969 149.496094 C 76.230469 149.496094 78.089844 150.183594 79.246094 151.558594 Z M 92.144531 161.789062 C 92.144531 162.574219 92.28125 163.234375 92.550781 163.761719 C 92.820312 164.292969 93.449219 164.558594 94.4375 164.558594 C 94.886719 164.558594 95.316406 164.535156 95.71875 164.488281 L 95.71875 168.742188 C 94.910156 168.832031 94.15625 168.878906 93.460938 168.878906 C 92.023438 168.878906 90.859375 168.761719 89.972656 168.523438 C 89.082031 168.289062 88.390625 167.832031 87.898438 167.15625 C 87.402344 166.480469 87.15625 165.511719 87.15625 164.253906 L 87.15625 153.953125 L 84.894531 153.953125 L 84.894531 149.53125 L 87.15625 149.53125 L 87.15625 144.566406 L 92.144531 144.566406 L 92.144531 149.53125 L 95.855469 149.53125 L 95.855469 153.953125 L 92.144531 153.953125 Z M 110.152344 168.40625 L 110.152344 143.722656 L 121.109375 143.722656 C 122.863281 143.722656 124.414062 144.082031 125.765625 144.804688 C 127.113281 145.523438 128.160156 146.539062 128.902344 147.84375 C 129.640625 149.148438 130.011719 150.632812 130.011719 152.300781 C 130.011719 154.078125 129.5625 155.664062 128.664062 157.0625 C 127.765625 158.457031 126.539062 159.480469 124.988281 160.132812 C 126.585938 162.160156 128.710938 164.917969 131.363281 168.40625 L 124.988281 168.40625 C 123.550781 166.605469 121.582031 164.039062 119.089844 160.707031 L 115.445312 160.707031 L 115.445312 168.40625 Z M 121.109375 156.082031 C 122.03125 156.082031 122.863281 155.75 123.605469 155.085938 C 124.347656 154.421875 124.71875 153.492188 124.71875 152.300781 C 124.71875 151.332031 124.460938 150.429688 123.945312 149.597656 C 123.425781 148.765625 122.484375 148.347656 121.109375 148.347656 L 115.445312 148.347656 L 115.445312 156.082031 Z M 147.785156 166.550781 C 147.355469 167.132812 146.621094 167.65625 145.574219 168.121094 C 144.53125 168.582031 143.390625 168.8125 142.152344 168.8125 C 140.242188 168.8125 138.582031 168.382812 137.179688 167.527344 C 135.773438 166.671875 134.699219 165.507812 133.957031 164.035156 C 133.214844 162.558594 132.847656 160.921875 132.847656 159.121094 C 132.847656 157.320312 133.214844 155.683594 133.957031 154.207031 C 134.699219 152.734375 135.773438 151.566406 137.179688 150.710938 C 138.582031 149.859375 140.242188 149.429688 142.152344 149.429688 C 143.433594 149.429688 144.5625 149.648438 145.542969 150.089844 C 146.519531 150.527344 147.265625 151.085938 147.785156 151.757812 L 147.785156 149.835938 L 152.773438 149.835938 L 152.773438 168.40625 L 147.785156 168.40625 Z M 146.601562 155.320312 C 145.683594 154.34375 144.445312 153.851562 142.894531 153.851562 C 141.320312 153.851562 140.078125 154.34375 139.167969 155.320312 C 138.257812 156.300781 137.800781 157.566406 137.800781 159.121094 C 137.800781 160.628906 138.269531 161.878906 139.203125 162.867188 C 140.136719 163.859375 141.367188 164.355469 142.894531 164.355469 C 144.46875 164.355469 145.710938 163.886719 146.621094 162.953125 C 147.53125 162.019531 147.984375 160.742188 147.984375 159.121094 C 147.984375 157.566406 147.523438 156.300781 146.601562 155.320312 Z M 171.824219 166.550781 C 171.398438 167.132812 170.664062 167.65625 169.617188 168.121094 C 168.570312 168.582031 167.429688 168.8125 166.195312 168.8125 C 164.285156 168.8125 162.625 168.382812 161.222656 167.527344 C 159.816406 166.671875 158.742188 165.507812 158 164.035156 C 157.257812 162.558594 156.886719 160.921875 156.886719 159.121094 C 156.886719 157.320312 157.257812 155.683594 158 154.207031 C 158.742188 152.734375 159.816406 151.566406 161.222656 150.710938 C 162.625 149.859375 164.285156 149.429688 166.195312 149.429688 C 167.476562 149.429688 168.605469 149.648438 169.582031 150.089844 C 170.5625 150.527344 171.308594 151.085938 171.824219 151.757812 L 171.824219 142.878906 L 176.816406 142.878906 L 176.816406 168.40625 L 171.824219 168.40625 Z M 170.644531 155.320312 C 169.722656 154.34375 168.488281 153.851562 166.9375 153.851562 C 165.363281 153.851562 164.121094 154.34375 163.210938 155.320312 C 162.300781 156.300781 161.84375 157.566406 161.84375 159.121094 C 161.84375 160.628906 162.3125 161.878906 163.246094 162.867188 C 164.175781 163.859375 165.40625 164.355469 166.9375 164.355469 C 168.511719 164.355469 169.753906 163.886719 170.664062 162.953125 C 171.574219 162.019531 172.027344 160.742188 172.027344 159.121094 C 172.027344 157.566406 171.566406 156.300781 170.644531 155.320312 Z M 186.527344 147.082031 C 185.988281 147.613281 185.335938 147.875 184.570312 147.875 C 183.785156 147.875 183.117188 147.613281 182.566406 147.082031 C 182.015625 146.554688 181.738281 145.90625 181.738281 145.140625 C 181.738281 144.398438 182.015625 143.761719 182.566406 143.234375 C 183.117188 142.703125 183.785156 142.441406 184.570312 142.441406 C 185.335938 142.441406 185.988281 142.703125 186.527344 143.234375 C 187.066406 143.761719 187.335938 144.398438 187.335938 145.140625 C 187.335938 145.90625 187.066406 146.554688 186.527344 147.082031 Z M 182.042969 149.867188 L 187.101562 149.867188 L 187.101562 168.40625 L 182.042969 168.40625 Z M 196.222656 167.546875 C 194.683594 166.679688 193.460938 165.503906 192.5625 164.015625 C 191.664062 162.53125 191.214844 160.910156 191.214844 159.15625 C 191.214844 157.421875 191.664062 155.8125 192.5625 154.324219 C 193.460938 152.839844 194.683594 151.664062 196.222656 150.796875 C 197.761719 149.929688 199.441406 149.496094 201.261719 149.496094 C 203.085938 149.496094 204.769531 149.929688 206.320312 150.796875 C 207.871094 151.664062 209.101562 152.839844 210.011719 154.324219 C 210.925781 155.8125 211.378906 157.421875 211.378906 159.15625 C 211.378906 160.910156 210.925781 162.53125 210.011719 164.015625 C 209.101562 165.503906 207.871094 166.679688 206.320312 167.546875 C 204.769531 168.410156 203.085938 168.84375 201.261719 168.84375 C 199.441406 168.84375 197.761719 168.410156 196.222656 167.546875 Z M 198.699219 154.613281 C 197.914062 155.074219 197.296875 155.703125 196.847656 156.503906 C 196.394531 157.304688 196.171875 158.1875 196.171875 159.15625 C 196.171875 160.167969 196.390625 161.074219 196.828125 161.871094 C 197.265625 162.671875 197.875 163.300781 198.648438 163.761719 C 199.425781 164.226562 200.296875 164.457031 201.261719 164.457031 C 202.207031 164.457031 203.066406 164.226562 203.84375 163.761719 C 204.617188 163.300781 205.230469 162.664062 205.679688 161.855469 C 206.128906 161.046875 206.355469 160.144531 206.355469 159.15625 C 206.355469 158.1875 206.128906 157.304688 205.679688 156.503906 C 205.230469 155.703125 204.617188 155.074219 203.84375 154.613281 C 203.066406 154.152344 202.207031 153.921875 201.261719 153.921875 C 200.339844 153.921875 199.488281 154.152344 198.699219 154.613281 Z M 215.527344 142.878906 L 220.585938 142.878906 L 220.585938 168.40625 L 215.527344 168.40625 Z M 229.539062 167.546875 C 227.996094 166.679688 226.777344 165.503906 225.878906 164.015625 C 224.980469 162.53125 224.53125 160.910156 224.53125 159.15625 C 224.53125 157.421875 224.980469 155.8125 225.878906 154.324219 C 226.777344 152.839844 227.996094 151.664062 229.539062 150.796875 C 231.078125 149.929688 232.757812 149.496094 234.578125 149.496094 C 236.398438 149.496094 238.085938 149.929688 239.636719 150.796875 C 241.1875 151.664062 242.417969 152.839844 243.328125 154.324219 C 244.238281 155.8125 244.695312 157.421875 244.695312 159.15625 C 244.695312 160.910156 244.238281 162.53125 243.328125 164.015625 C 242.417969 165.503906 241.1875 166.679688 239.636719 167.546875 C 238.085938 168.410156 236.398438 168.84375 234.578125 168.84375 C 232.757812 168.84375 231.078125 168.410156 229.539062 167.546875 Z M 232.015625 154.613281 C 231.230469 155.074219 230.609375 155.703125 230.160156 156.503906 C 229.710938 157.304688 229.488281 158.1875 229.488281 159.15625 C 229.488281 160.167969 229.707031 161.074219 230.144531 161.871094 C 230.582031 162.671875 231.191406 163.300781 231.964844 163.761719 C 232.742188 164.226562 233.613281 164.457031 234.578125 164.457031 C 235.523438 164.457031 236.382812 164.226562 237.15625 163.761719 C 237.933594 163.300781 238.546875 162.664062 238.996094 161.855469 C 239.445312 161.046875 239.671875 160.144531 239.671875 159.15625 C 239.671875 158.1875 239.445312 157.304688 238.996094 156.503906 C 238.546875 155.703125 237.933594 155.074219 237.15625 154.613281 C 236.382812 154.152344 235.523438 153.921875 234.578125 153.921875 C 233.65625 153.921875 232.800781 154.152344 232.015625 154.613281 Z M 265.382812 173.082031 C 263.730469 174.625 261.429688 175.394531 258.484375 175.394531 C 254.957031 175.394531 252 174.460938 249.617188 172.59375 L 252.078125 169.015625 C 252.84375 169.621094 253.75 170.117188 254.792969 170.5 C 255.839844 170.882812 256.945312 171.074219 258.113281 171.074219 C 261.285156 171.074219 262.871094 169.632812 262.871094 166.75 L 262.871094 166.449219 C 261.519531 167.550781 259.789062 168.101562 257.675781 168.101562 C 255.722656 168.101562 254 167.691406 252.515625 166.871094 C 251.035156 166.046875 249.898438 164.929688 249.113281 163.511719 C 248.324219 162.09375 247.933594 160.527344 247.933594 158.816406 C 247.933594 157.082031 248.324219 155.511719 249.113281 154.105469 C 249.898438 152.699219 251.027344 151.578125 252.5 150.746094 C 253.972656 149.914062 255.699219 149.496094 257.675781 149.496094 C 259.789062 149.496094 261.519531 150.046875 262.871094 151.152344 L 262.871094 149.835938 L 267.859375 149.835938 L 267.859375 166.75 C 267.859375 169.429688 267.035156 171.539062 265.382812 173.082031 Z M 260.558594 163.1875 C 261.335938 162.75 261.949219 162.144531 262.398438 161.367188 C 262.847656 160.589844 263.070312 159.738281 263.070312 158.816406 C 263.070312 157.871094 262.847656 157.015625 262.398438 156.25 C 261.949219 155.484375 261.335938 154.882812 260.558594 154.445312 C 259.785156 154.003906 258.925781 153.785156 257.980469 153.785156 C 256.453125 153.785156 255.222656 154.265625 254.289062 155.21875 C 253.355469 156.175781 252.886719 157.375 252.886719 158.816406 C 252.886719 160.300781 253.34375 161.511719 254.253906 162.445312 C 255.164062 163.378906 256.40625 163.847656 257.980469 163.847656 C 258.925781 163.847656 259.785156 163.628906 260.558594 163.1875 Z M 275.042969 175.363281 L 278.246094 167.730469 L 270.289062 149.902344 L 276.121094 149.902344 L 280.808594 161.71875 L 285.125 149.902344 L 290.957031 149.902344 L 280.605469 175.363281 Z M 275.042969 175.363281 "></path>
    <path style=" stroke:none;fill-rule:nonzero;fill:rgb(0.392157%,9.803922%,43.137255%);fill-opacity:1;" d="M 12.929688 183.789062 L 14.261719 183.789062 L 14.261719 188.582031 L 15.226562 188.582031 L 15.4375 188.605469 L 15.4375 188.035156 L 16.566406 187.507812 L 16.566406 189.789062 L 12.929688 189.789062 Z M 21.570312 183.789062 L 22.933594 183.789062 L 22.933594 189.789062 L 21.570312 189.789062 Z M 31.289062 187.640625 L 30.40625 187.640625 L 30.960938 186.566406 L 32.585938 186.566406 L 32.585938 189.605469 C 32.261719 189.714844 31.949219 189.789062 31.652344 189.824219 C 31.351562 189.863281 31.09375 189.878906 30.867188 189.878906 C 30.378906 189.878906 29.949219 189.804688 29.585938 189.652344 C 29.222656 189.503906 28.921875 189.292969 28.683594 189.023438 C 28.441406 188.757812 28.265625 188.433594 28.144531 188.058594 C 28.027344 187.6875 27.96875 187.273438 27.96875 186.828125 C 27.96875 186.378906 28.03125 185.964844 28.15625 185.585938 C 28.277344 185.207031 28.457031 184.878906 28.695312 184.601562 C 28.933594 184.324219 29.226562 184.109375 29.578125 183.953125 C 29.929688 183.800781 30.332031 183.722656 30.785156 183.722656 C 31.046875 183.722656 31.300781 183.742188 31.542969 183.78125 C 31.785156 183.820312 32.058594 183.902344 32.359375 184.027344 L 31.789062 185.074219 C 31.683594 185.03125 31.554688 184.996094 31.40625 184.96875 C 31.253906 184.945312 31.09375 184.933594 30.917969 184.933594 C 30.421875 184.933594 30.046875 185.089844 29.792969 185.402344 C 29.539062 185.714844 29.410156 186.191406 29.410156 186.828125 C 29.410156 187.464844 29.535156 187.933594 29.789062 188.226562 C 30.039062 188.523438 30.417969 188.671875 30.925781 188.671875 C 31.0625 188.671875 31.179688 188.660156 31.289062 188.640625 Z M 37.730469 183.789062 L 39.105469 183.789062 L 39.105469 186.054688 L 40.890625 186.054688 L 40.890625 183.789062 L 42.261719 183.789062 L 42.261719 189.789062 L 40.890625 189.789062 L 40.890625 187.230469 C 40.855469 187.234375 40.824219 187.242188 40.796875 187.246094 L 40.695312 187.261719 L 39.289062 187.261719 L 39.105469 187.230469 L 39.105469 189.789062 L 37.730469 189.789062 Z M 48.578125 184.980469 L 47.148438 184.980469 L 47.148438 183.789062 L 51.460938 183.789062 L 51.269531 184.378906 L 51.074219 184.980469 L 49.953125 184.980469 L 49.980469 185.21875 L 49.980469 189.789062 L 48.578125 189.789062 Z M 56.3125 183.789062 L 59.839844 183.789062 C 59.785156 184.003906 59.726562 184.203125 59.671875 184.394531 C 59.617188 184.585938 59.558594 184.78125 59.503906 184.980469 L 57.660156 184.980469 C 57.660156 185.003906 57.664062 185.035156 57.671875 185.078125 C 57.675781 185.121094 57.679688 185.152344 57.679688 185.175781 L 57.679688 186.054688 L 59.371094 186.054688 L 59.371094 187.253906 L 57.679688 187.253906 L 57.679688 188.40625 L 57.660156 188.597656 L 59.875 188.597656 L 59.875 189.789062 L 56.3125 189.789062 Z M 65.175781 184.839844 L 64.382812 184.839844 L 64.925781 183.789062 L 66.300781 183.789062 L 68.285156 187.078125 L 68.335938 187.222656 L 68.335938 183.789062 L 69.640625 183.789062 L 69.640625 189.789062 L 68.527344 189.789062 L 66.515625 186.476562 L 66.476562 186.347656 L 66.476562 189.789062 L 65.175781 189.789062 Z M 75.070312 183.789062 L 76.4375 183.789062 L 76.4375 189.789062 L 75.070312 189.789062 Z M 81.949219 184.839844 L 81.15625 184.839844 L 81.699219 183.789062 L 83.074219 183.789062 L 85.058594 187.078125 L 85.109375 187.222656 L 85.109375 183.789062 L 86.414062 183.789062 L 86.414062 189.789062 L 85.300781 189.789062 L 83.289062 186.476562 L 83.25 186.347656 L 83.25 189.789062 L 81.949219 189.789062 Z M 94.953125 187.640625 L 94.074219 187.640625 L 94.625 186.566406 L 96.25 186.566406 L 96.25 189.605469 C 95.925781 189.714844 95.613281 189.789062 95.316406 189.824219 C 95.019531 189.863281 94.757812 189.878906 94.535156 189.878906 C 94.042969 189.878906 93.613281 189.804688 93.25 189.652344 C 92.886719 189.503906 92.585938 189.292969 92.347656 189.023438 C 92.105469 188.757812 91.929688 188.433594 91.8125 188.058594 C 91.695312 187.6875 91.636719 187.273438 91.636719 186.828125 C 91.636719 186.378906 91.695312 185.964844 91.820312 185.585938 C 91.941406 185.207031 92.121094 184.878906 92.359375 184.601562 C 92.597656 184.324219 92.890625 184.109375 93.242188 183.953125 C 93.59375 183.800781 93.996094 183.722656 94.449219 183.722656 C 94.710938 183.722656 94.964844 183.742188 95.207031 183.78125 C 95.449219 183.820312 95.722656 183.902344 96.023438 184.027344 L 95.453125 185.074219 C 95.347656 185.03125 95.21875 184.996094 95.070312 184.96875 C 94.917969 184.945312 94.757812 184.933594 94.582031 184.933594 C 94.085938 184.933594 93.710938 185.089844 93.457031 185.402344 C 93.203125 185.714844 93.074219 186.191406 93.074219 186.828125 C 93.074219 187.464844 93.203125 187.933594 93.453125 188.226562 C 93.703125 188.523438 94.082031 188.671875 94.59375 188.671875 C 94.726562 188.671875 94.847656 188.660156 94.953125 188.640625 Z M 109.070312 187.625 L 108.988281 187.464844 L 108.777344 187.03125 L 108.476562 186.417969 L 108.132812 185.710938 C 107.859375 185.152344 107.546875 184.511719 107.195312 183.789062 L 108.699219 183.789062 L 109.78125 186.257812 C 109.984375 185.796875 110.160156 185.386719 110.316406 185.023438 C 110.386719 184.871094 110.449219 184.722656 110.515625 184.574219 C 110.578125 184.425781 110.636719 184.292969 110.6875 184.175781 C 110.738281 184.058594 110.777344 183.964844 110.808594 183.894531 L 110.855469 183.789062 L 112.320312 183.789062 L 110.445312 187.632812 L 110.445312 189.796875 L 109.070312 189.796875 Z M 118.945312 189.878906 C 118.488281 189.878906 118.101562 189.800781 117.777344 189.644531 C 117.457031 189.488281 117.195312 189.273438 116.992188 189 C 116.789062 188.726562 116.636719 188.398438 116.542969 188.023438 C 116.449219 187.644531 116.402344 187.234375 116.402344 186.785156 C 116.402344 186.339844 116.449219 185.925781 116.542969 185.546875 C 116.636719 185.171875 116.789062 184.847656 116.992188 184.574219 C 117.195312 184.304688 117.457031 184.09375 117.777344 183.941406 C 118.101562 183.789062 118.488281 183.714844 118.945312 183.714844 C 119.40625 183.714844 119.792969 183.789062 120.117188 183.941406 C 120.4375 184.09375 120.699219 184.304688 120.902344 184.574219 C 121.105469 184.847656 121.253906 185.171875 121.347656 185.546875 C 121.4375 185.925781 121.484375 186.339844 121.484375 186.785156 C 121.484375 187.234375 121.4375 187.644531 121.347656 188.023438 C 121.253906 188.398438 121.105469 188.726562 120.902344 189 C 120.699219 189.273438 120.4375 189.488281 120.117188 189.644531 C 119.792969 189.800781 119.40625 189.878906 118.945312 189.878906 Z M 118.945312 188.707031 C 119.332031 188.707031 119.609375 188.546875 119.78125 188.226562 C 119.949219 187.910156 120.035156 187.429688 120.035156 186.785156 C 120.035156 186.140625 119.953125 185.667969 119.789062 185.367188 C 119.625 185.066406 119.347656 184.914062 118.957031 184.914062 C 118.558594 184.914062 118.277344 185.066406 118.105469 185.367188 C 117.933594 185.667969 117.851562 186.140625 117.851562 186.785156 C 117.851562 187.429688 117.933594 187.910156 118.105469 188.226562 C 118.277344 188.546875 118.554688 188.707031 118.945312 188.707031 Z M 126.480469 183.789062 L 127.851562 183.789062 L 127.851562 186.996094 C 127.851562 187.308594 127.867188 187.574219 127.894531 187.789062 C 127.921875 188.003906 127.96875 188.175781 128.039062 188.308594 C 128.105469 188.4375 128.195312 188.53125 128.3125 188.589844 C 128.429688 188.644531 128.578125 188.671875 128.757812 188.671875 C 128.941406 188.671875 129.09375 188.644531 129.210938 188.589844 C 129.328125 188.53125 129.417969 188.441406 129.488281 188.3125 C 129.554688 188.183594 129.601562 188.011719 129.628906 187.796875 C 129.65625 187.582031 129.671875 187.3125 129.671875 186.996094 L 129.671875 183.789062 L 131.042969 183.789062 L 131.042969 187.246094 C 131.042969 187.660156 131.007812 188.03125 130.941406 188.355469 C 130.871094 188.679688 130.75 188.953125 130.574219 189.179688 C 130.402344 189.40625 130.167969 189.578125 129.875 189.699219 C 129.582031 189.820312 129.210938 189.878906 128.757812 189.878906 C 128.3125 189.878906 127.941406 189.820312 127.648438 189.699219 C 127.355469 189.578125 127.121094 189.40625 126.949219 189.179688 C 126.773438 188.953125 126.652344 188.679688 126.585938 188.355469 C 126.515625 188.03125 126.480469 187.660156 126.480469 187.246094 Z M 136.304688 183.839844 C 136.574219 183.808594 136.820312 183.78125 137.042969 183.761719 C 137.265625 183.742188 137.503906 183.730469 137.753906 183.730469 C 138.0625 183.730469 138.367188 183.761719 138.671875 183.820312 C 138.976562 183.878906 139.25 183.980469 139.488281 184.125 C 139.730469 184.273438 139.921875 184.46875 140.070312 184.714844 C 140.21875 184.960938 140.292969 185.273438 140.292969 185.652344 C 140.292969 185.871094 140.265625 186.066406 140.207031 186.242188 C 140.148438 186.414062 140.074219 186.566406 139.988281 186.699219 C 139.902344 186.828125 139.804688 186.945312 139.699219 187.042969 C 139.59375 187.140625 139.488281 187.222656 139.390625 187.289062 L 139.347656 187.3125 L 139.460938 187.5 L 139.738281 187.960938 L 140.449219 189.148438 L 140.714844 189.605469 L 140.820312 189.78125 L 139.289062 189.78125 L 137.707031 187.019531 L 137.707031 189.789062 L 136.304688 189.789062 Z M 137.707031 186.96875 L 138 186.835938 C 138.070312 186.800781 138.15625 186.761719 138.257812 186.710938 C 138.359375 186.660156 138.457031 186.59375 138.550781 186.511719 C 138.644531 186.433594 138.726562 186.335938 138.792969 186.222656 C 138.863281 186.113281 138.894531 185.976562 138.894531 185.8125 C 138.894531 185.640625 138.871094 185.496094 138.820312 185.378906 C 138.769531 185.265625 138.699219 185.171875 138.609375 185.105469 C 138.519531 185.035156 138.417969 184.984375 138.296875 184.953125 C 138.175781 184.921875 138.046875 184.90625 137.90625 184.90625 L 137.808594 184.90625 L 137.707031 184.914062 Z M 151.933594 183.789062 L 153.296875 183.789062 L 153.296875 189.789062 L 151.933594 189.789062 Z M 158.800781 183.800781 L 160.234375 183.800781 L 161.507812 186.917969 L 161.605469 186.6875 L 161.84375 186.113281 L 162.148438 185.363281 L 162.453125 184.609375 L 162.6875 184.03125 L 162.78125 183.800781 L 164.121094 183.800781 L 164.414062 189.789062 L 163.03125 189.789062 L 162.972656 186.289062 L 161.992188 188.570312 L 160.980469 188.570312 L 159.964844 186.289062 L 159.875 189.789062 L 158.578125 189.789062 Z M 170.882812 184.839844 L 170.289062 184.839844 L 170.832031 183.800781 L 172.675781 183.800781 L 174.550781 189.789062 L 173.109375 189.789062 L 172.777344 188.589844 L 172.449219 188.613281 L 171.285156 188.613281 L 171 188.589844 L 170.65625 189.789062 L 169.308594 189.789062 Z M 172.449219 187.449219 L 171.894531 185.453125 L 171.308594 187.449219 Z M 182.292969 187.640625 L 181.414062 187.640625 L 181.964844 186.566406 L 183.589844 186.566406 L 183.589844 189.605469 C 183.269531 189.714844 182.957031 189.789062 182.65625 189.824219 C 182.359375 189.863281 182.097656 189.878906 181.875 189.878906 C 181.382812 189.878906 180.957031 189.804688 180.59375 189.652344 C 180.230469 189.503906 179.929688 189.292969 179.6875 189.023438 C 179.449219 188.757812 179.269531 188.433594 179.152344 188.058594 C 179.035156 187.6875 178.976562 187.273438 178.976562 186.828125 C 178.976562 186.378906 179.039062 185.964844 179.160156 185.585938 C 179.285156 185.207031 179.464844 184.878906 179.699219 184.601562 C 179.9375 184.324219 180.234375 184.109375 180.585938 183.953125 C 180.9375 183.800781 181.339844 183.722656 181.789062 183.722656 C 182.054688 183.722656 182.304688 183.742188 182.546875 183.78125 C 182.792969 183.820312 183.0625 183.902344 183.367188 184.027344 L 182.796875 185.074219 C 182.691406 185.03125 182.5625 184.996094 182.410156 184.96875 C 182.261719 184.945312 182.097656 184.933594 181.925781 184.933594 C 181.425781 184.933594 181.050781 185.089844 180.796875 185.402344 C 180.542969 185.714844 180.417969 186.191406 180.417969 186.828125 C 180.417969 187.464844 180.542969 187.933594 180.792969 188.226562 C 181.046875 188.523438 181.425781 188.671875 181.933594 188.671875 C 182.066406 188.671875 182.1875 188.660156 182.292969 188.640625 Z M 188.703125 183.789062 L 190.066406 183.789062 L 190.066406 189.789062 L 188.703125 189.789062 Z M 195.582031 184.839844 L 194.785156 184.839844 L 195.332031 183.789062 L 196.703125 183.789062 L 198.6875 187.078125 L 198.738281 187.222656 L 198.738281 183.789062 L 200.046875 183.789062 L 200.046875 189.789062 L 198.933594 189.789062 L 196.921875 186.476562 L 196.878906 186.347656 L 196.878906 189.789062 L 195.582031 189.789062 Z M 208.582031 187.640625 L 207.703125 187.640625 L 208.257812 186.566406 L 209.882812 186.566406 L 209.882812 189.605469 C 209.558594 189.714844 209.246094 189.789062 208.949219 189.824219 C 208.648438 189.863281 208.386719 189.878906 208.164062 189.878906 C 207.671875 189.878906 207.246094 189.804688 206.882812 189.652344 C 206.519531 189.503906 206.21875 189.292969 205.980469 189.023438 C 205.738281 188.757812 205.558594 188.433594 205.441406 188.058594 C 205.324219 187.6875 205.265625 187.273438 205.265625 186.828125 C 205.265625 186.378906 205.328125 185.964844 205.449219 185.585938 C 205.574219 185.207031 205.753906 184.878906 205.992188 184.601562 C 206.226562 184.324219 206.523438 184.109375 206.875 183.953125 C 207.226562 183.800781 207.628906 183.722656 208.082031 183.722656 C 208.34375 183.722656 208.597656 183.742188 208.839844 183.78125 C 209.082031 183.820312 209.355469 183.902344 209.65625 184.027344 L 209.085938 185.074219 C 208.980469 185.03125 208.851562 184.996094 208.699219 184.96875 C 208.550781 184.945312 208.386719 184.933594 208.214844 184.933594 C 207.71875 184.933594 207.34375 185.089844 207.089844 185.402344 C 206.835938 185.714844 206.707031 186.191406 206.707031 186.828125 C 206.707031 187.464844 206.832031 187.933594 207.085938 188.226562 C 207.335938 188.523438 207.714844 188.671875 208.222656 188.671875 C 208.359375 188.671875 208.476562 188.660156 208.582031 188.640625 Z M 222.039062 184.992188 C 221.820312 184.992188 221.585938 184.988281 221.332031 184.984375 C 221.078125 184.984375 220.859375 184.980469 220.675781 184.980469 L 221.300781 183.800781 L 223.40625 183.800781 L 223.40625 188.136719 C 223.40625 188.453125 223.355469 188.722656 223.257812 188.945312 C 223.160156 189.167969 223.023438 189.34375 222.851562 189.480469 C 222.679688 189.621094 222.472656 189.71875 222.238281 189.785156 C 222 189.847656 221.742188 189.878906 221.460938 189.878906 C 221.367188 189.878906 221.246094 189.875 221.097656 189.859375 C 220.949219 189.84375 220.792969 189.816406 220.625 189.773438 C 220.636719 189.699219 220.644531 189.609375 220.65625 189.503906 C 220.667969 189.398438 220.679688 189.289062 220.695312 189.179688 C 220.710938 189.070312 220.71875 188.964844 220.730469 188.855469 C 220.738281 188.75 220.746094 188.660156 220.757812 188.589844 C 220.898438 188.617188 221.011719 188.636719 221.101562 188.648438 C 221.191406 188.660156 221.265625 188.664062 221.328125 188.664062 C 221.394531 188.664062 221.46875 188.660156 221.554688 188.652344 C 221.636719 188.644531 221.714844 188.617188 221.789062 188.578125 C 221.859375 188.535156 221.921875 188.464844 221.96875 188.371094 C 222.015625 188.277344 222.039062 188.144531 222.039062 187.976562 Z M 230.921875 189.878906 C 230.460938 189.878906 230.074219 189.800781 229.75 189.644531 C 229.429688 189.488281 229.167969 189.273438 228.964844 189 C 228.761719 188.726562 228.609375 188.398438 228.515625 188.023438 C 228.421875 187.644531 228.375 187.234375 228.375 186.785156 C 228.375 186.339844 228.421875 185.925781 228.515625 185.546875 C 228.609375 185.171875 228.761719 184.847656 228.964844 184.574219 C 229.167969 184.304688 229.429688 184.09375 229.75 183.941406 C 230.074219 183.789062 230.460938 183.714844 230.921875 183.714844 C 231.378906 183.714844 231.769531 183.789062 232.089844 183.941406 C 232.410156 184.09375 232.671875 184.304688 232.875 184.574219 C 233.078125 184.847656 233.226562 185.171875 233.320312 185.546875 C 233.414062 185.925781 233.457031 186.339844 233.457031 186.785156 C 233.457031 187.234375 233.414062 187.644531 233.320312 188.023438 C 233.226562 188.398438 233.078125 188.726562 232.875 189 C 232.671875 189.273438 232.410156 189.488281 232.089844 189.644531 C 231.769531 189.800781 231.378906 189.878906 230.921875 189.878906 Z M 230.921875 188.707031 C 231.304688 188.707031 231.582031 188.546875 231.753906 188.226562 C 231.925781 187.910156 232.007812 187.429688 232.007812 186.785156 C 232.007812 186.140625 231.925781 185.667969 231.761719 185.367188 C 231.597656 185.066406 231.320312 184.914062 230.929688 184.914062 C 230.53125 184.914062 230.25 185.066406 230.078125 185.367188 C 229.90625 185.667969 229.824219 186.140625 229.824219 186.785156 C 229.824219 187.429688 229.90625 187.910156 230.078125 188.226562 C 230.25 188.546875 230.53125 188.707031 230.921875 188.707031 Z M 238.453125 183.789062 L 239.824219 183.789062 L 239.824219 186.996094 C 239.824219 187.308594 239.839844 187.574219 239.867188 187.789062 C 239.894531 188.003906 239.945312 188.175781 240.011719 188.308594 C 240.078125 188.4375 240.167969 188.53125 240.285156 188.589844 C 240.402344 188.644531 240.550781 188.671875 240.730469 188.671875 C 240.914062 188.671875 241.066406 188.644531 241.183594 188.589844 C 241.300781 188.53125 241.390625 188.441406 241.460938 188.3125 C 241.527344 188.183594 241.574219 188.011719 241.601562 187.796875 C 241.628906 187.582031 241.644531 187.3125 241.644531 186.996094 L 241.644531 183.789062 L 243.015625 183.789062 L 243.015625 187.246094 C 243.015625 187.660156 242.984375 188.03125 242.914062 188.355469 C 242.84375 188.679688 242.722656 188.953125 242.546875 189.179688 C 242.375 189.40625 242.140625 189.578125 241.847656 189.699219 C 241.554688 189.820312 241.183594 189.878906 240.730469 189.878906 C 240.285156 189.878906 239.914062 189.820312 239.621094 189.699219 C 239.328125 189.578125 239.09375 189.40625 238.921875 189.179688 C 238.75 188.953125 238.625 188.679688 238.558594 188.355469 C 238.488281 188.03125 238.453125 187.660156 238.453125 187.246094 Z M 248.28125 183.839844 C 248.546875 183.808594 248.792969 183.78125 249.015625 183.761719 C 249.238281 183.742188 249.476562 183.730469 249.730469 183.730469 C 250.035156 183.730469 250.339844 183.761719 250.644531 183.820312 C 250.949219 183.878906 251.222656 183.980469 251.460938 184.125 C 251.703125 184.273438 251.898438 184.46875 252.042969 184.714844 C 252.191406 184.960938 252.265625 185.273438 252.265625 185.652344 C 252.265625 185.871094 252.238281 186.066406 252.179688 186.242188 C 252.121094 186.414062 252.046875 186.566406 251.960938 186.699219 C 251.875 186.828125 251.777344 186.945312 251.671875 187.042969 C 251.566406 187.140625 251.460938 187.222656 251.363281 187.289062 L 251.320312 187.3125 L 251.433594 187.5 L 251.710938 187.960938 L 252.421875 189.148438 L 252.691406 189.605469 L 252.792969 189.78125 L 251.261719 189.78125 L 249.679688 187.019531 L 249.679688 189.789062 L 248.28125 189.789062 Z M 249.679688 186.96875 L 249.972656 186.835938 C 250.042969 186.800781 250.128906 186.761719 250.230469 186.710938 C 250.332031 186.660156 250.429688 186.59375 250.523438 186.511719 C 250.621094 186.433594 250.699219 186.335938 250.765625 186.222656 C 250.835938 186.113281 250.867188 185.976562 250.867188 185.8125 C 250.867188 185.640625 250.84375 185.496094 250.792969 185.378906 C 250.742188 185.265625 250.671875 185.171875 250.582031 185.105469 C 250.492188 185.035156 250.390625 184.984375 250.269531 184.953125 C 250.148438 184.921875 250.019531 184.90625 249.878906 184.90625 L 249.785156 184.90625 L 249.679688 184.914062 Z M 257.8125 184.839844 L 257.019531 184.839844 L 257.5625 183.789062 L 258.9375 183.789062 L 260.921875 187.078125 L 260.972656 187.222656 L 260.972656 183.789062 L 262.277344 183.789062 L 262.277344 189.789062 L 261.164062 189.789062 L 259.152344 186.476562 L 259.113281 186.347656 L 259.113281 189.789062 L 257.8125 189.789062 Z M 267.726562 183.789062 L 271.25 183.789062 C 271.195312 184.003906 271.140625 184.203125 271.082031 184.394531 C 271.027344 184.585938 270.972656 184.78125 270.917969 184.980469 L 269.074219 184.980469 C 269.074219 185.003906 269.074219 185.035156 269.082031 185.078125 C 269.085938 185.121094 269.089844 185.152344 269.089844 185.175781 L 269.089844 186.054688 L 270.78125 186.054688 L 270.78125 187.253906 L 269.089844 187.253906 L 269.089844 188.40625 L 269.074219 188.597656 L 271.285156 188.597656 L 271.285156 189.789062 L 267.726562 189.789062 Z M 277.667969 187.625 L 277.589844 187.464844 L 277.375 187.03125 L 277.074219 186.417969 L 276.730469 185.710938 C 276.457031 185.152344 276.144531 184.511719 275.792969 183.789062 L 277.300781 183.789062 L 278.382812 186.257812 C 278.582031 185.796875 278.761719 185.386719 278.917969 185.023438 C 278.984375 184.871094 279.050781 184.722656 279.113281 184.574219 C 279.179688 184.425781 279.234375 184.292969 279.285156 184.175781 C 279.335938 184.058594 279.375 183.964844 279.40625 183.894531 L 279.453125 183.789062 L 280.917969 183.789062 L 279.042969 187.632812 L 279.042969 189.796875 L 277.667969 189.796875 Z M 277.667969 187.625 "></path>
  </g>
</svg>
